<svg width="20" height="17" viewBox="0 0 20 17" fill="none" xmlns="http://www.w3.org/2000/svg">
<path d="M19.543 3.12837C20 4.91037 20 8.63037 20 8.63037C20 8.63037 20 12.3504 19.543 14.1324C19.289 15.1174 18.546 15.8924 17.605 16.1544C15.896 16.6304 10 16.6304 10 16.6304C10 16.6304 4.107 16.6304 2.395 16.1544C1.45 15.8884 0.708 15.1144 0.457 14.1324C2.98023e-08 12.3504 0 8.63037 0 8.63037C0 8.63037 2.98023e-08 4.91037 0.457 3.12837C0.711 2.14337 1.454 1.36837 2.395 1.10637C4.107 0.630371 10 0.630371 10 0.630371C10 0.630371 15.896 0.630371 17.605 1.10637C18.55 1.37237 19.292 2.14637 19.543 3.12837ZM8 12.1304L14 8.63037L8 5.13037V12.1304Z" fill="white"/>
</svg>
