<svg width="589" height="339" viewBox="0 0 589 339" fill="none" xmlns="http://www.w3.org/2000/svg">
<path d="M492.833 336.335C492.833 336.335 493.303 320.522 483.007 308.47C472.694 296.418 453.34 290.714 437.809 293.879C422.262 297.045 426.87 303.878 432.104 306.244C437.339 308.627 443.686 311.04 439.078 314.66C434.486 318.296 432.261 325.427 439.392 327.496C446.522 329.564 453.026 326.696 460.799 331.931C468.573 337.181 481.737 338.795 492.833 336.335Z" fill="#3DC19A"/>
<path d="M436.43 298.378C457.211 299.537 479.324 311.103 488.429 336.319" stroke="#3B55CE" stroke-width="1.05" stroke-miterlimit="10" stroke-linecap="round"/>
<path d="M503.519 336.334C503.519 336.334 482.769 340.393 472.347 329.251C461.91 318.108 474.479 309.253 466.423 300.759C458.368 292.265 451.253 292.735 449.357 284.68C447.46 276.624 457.318 276.405 456.362 268.35C455.406 260.294 445.251 256.329 449.623 248.948C451.676 245.469 458.619 242.428 469.009 249.261C474.306 252.74 480.371 256.173 486.342 256.173C493.63 256.173 499.115 258.273 499.946 268.522C500.776 278.787 500.635 287.36 509.145 293.487C520.617 301.731 528.202 320.365 503.519 336.334Z" fill="#91DBAC"/>
<path d="M457.475 250.625C474.964 265.372 495.761 294.741 503.519 336.334" stroke="#3B55CE" stroke-width="1.05" stroke-miterlimit="10" stroke-linecap="round"/>
<path d="M186.698 287.908C186.698 287.908 211.146 256.188 219.703 226.568C228.259 196.948 230.689 155.418 227.946 154.509C225.203 153.6 203.216 178.628 194.157 207.339C186.306 232.21 186.698 287.908 186.698 287.908Z" fill="#40C7A7"/>
<path d="M222.446 165.181C222.446 165.181 190.522 228.464 189.018 278.505" stroke="#3B55CE" stroke-width="1.05" stroke-miterlimit="10" stroke-linecap="round"/>
<path d="M205.362 337.933C205.362 337.933 205.879 314.535 196.288 299.364C186.697 284.209 153.19 257.959 142.753 261.203C134.51 263.773 133.522 323.75 154.946 337.917H205.362V337.933Z" fill="#40C7A7"/>
<path d="M146.373 267.738C146.373 267.738 173.062 296.402 182.951 337.932" stroke="#3B55CE" stroke-width="1.05" stroke-miterlimit="10" stroke-linecap="round"/>
<path d="M200.346 338.402C200.346 338.402 196.789 277.251 188.53 251.157C182.261 231.379 171.338 214.485 150.008 202.621C135.935 194.801 122.002 195.694 125.952 202.621C129.901 209.548 142.423 219.468 158.581 245.468C173.171 268.96 186.477 314.691 186.696 338.402H200.346Z" fill="#22A482"/>
<path d="M133.192 202.292C149.663 212.51 169.331 232.068 178.013 257.222C186.695 282.375 190.206 324.893 189.877 338.402" stroke="#3B55CE" stroke-width="1.05" stroke-miterlimit="10" stroke-linecap="round"/>
<path d="M186.697 298.549C186.697 298.549 185.365 265.012 214.938 267.409C241.063 269.525 238.994 298.549 238.994 298.549C238.994 298.549 251.469 289.444 266.012 296.512C285.273 305.868 279.851 326.179 279.851 326.179H186.697V298.549V298.549Z" fill="#22A482"/>
<path d="M346.988 0H200.049C192.667 0 186.681 5.98666 186.681 13.3681V322.104C186.681 329.486 192.667 335.472 200.049 335.472H346.988C354.37 335.472 360.357 329.486 360.357 322.104V13.3681C360.357 5.98666 354.37 0 346.988 0ZM350.75 304.191C350.75 308.015 347.647 311.118 343.823 311.118H203.215C199.391 311.118 196.288 308.015 196.288 304.191V31.2811C196.288 27.4571 199.391 24.3541 203.215 24.3541H343.823C347.647 24.3541 350.75 27.4571 350.75 31.2811V304.191Z" fill="#416F75"/>
<path opacity="0.3" d="M343.838 24.3542H203.214C199.39 24.3542 196.287 27.4572 196.287 31.2812V304.191C196.287 308.015 199.39 311.118 203.214 311.118H343.823C347.646 311.118 350.749 308.015 350.749 304.191V31.2812C350.749 27.4572 347.662 24.3542 343.838 24.3542Z" fill="#BCD3F9"/>
<path d="M265.744 16.6434C268.211 16.6434 270.211 14.6437 270.211 12.1769C270.211 9.71016 268.211 7.71045 265.744 7.71045C263.278 7.71045 261.278 9.71016 261.278 12.1769C261.278 14.6437 263.278 16.6434 265.744 16.6434Z" fill="#000E5B"/>
<path d="M300.724 12.1771C300.724 10.6883 299.518 9.46588 298.013 9.46588H280.226C278.737 9.46588 277.514 10.6726 277.514 12.1771C277.514 13.6659 278.721 14.8884 280.226 14.8884H298.013C299.518 14.8884 300.724 13.6659 300.724 12.1771Z" fill="#000E5B"/>
<path d="M419.078 205.066H248.881C246.154 205.066 243.945 202.857 243.945 200.13V143.633C243.945 140.906 246.154 138.696 248.881 138.696H419.078C421.805 138.696 424.015 140.906 424.015 143.633V200.13C424.015 202.857 421.805 205.066 419.078 205.066Z" fill="#85B8ED"/>
<path d="M419.078 120.799H248.881C246.154 120.799 243.945 118.589 243.945 115.862V59.3648C243.945 56.6379 246.154 54.4282 248.881 54.4282H419.078C421.805 54.4282 424.015 56.6379 424.015 59.3648V115.862C424.015 118.589 421.805 120.799 419.078 120.799Z" fill="#85B8ED"/>
<path d="M419.078 289.35H248.881C246.154 289.35 243.945 287.14 243.945 284.413V227.916C243.945 225.189 246.154 222.979 248.881 222.979H419.078C421.805 222.979 424.015 225.189 424.015 227.916V284.413C424.015 287.14 421.805 289.35 419.078 289.35Z" fill="#85B8ED"/>
<path d="M416.257 116.646H246.06C243.333 116.646 241.124 114.436 241.124 111.709V55.2117C241.124 52.4848 243.333 50.2751 246.06 50.2751H416.257C418.984 50.2751 421.194 52.4848 421.194 55.2117V111.709C421.194 114.436 418.984 116.646 416.257 116.646Z" fill="#FFFFF8"/>
<path d="M293.749 100.987C303.425 91.3108 303.425 75.6229 293.749 65.9469C284.073 56.2708 268.385 56.2708 258.709 65.9469C249.033 75.6229 249.033 91.3108 258.709 100.987C268.385 110.663 284.073 110.663 293.749 100.987Z" fill="#FFFFF8"/>
<path d="M362.455 76.5254H312.054C310.691 76.5254 309.578 75.4127 309.578 74.0492V68.329C309.578 66.9655 310.691 65.8528 312.054 65.8528H362.455C363.818 65.8528 364.931 66.9655 364.931 68.329V74.0492C364.915 75.4284 363.818 76.5254 362.455 76.5254Z" fill="#3ED9C7"/>
<path d="M405.239 85.458H310.393C309.939 85.458 309.562 85.8341 309.562 86.2729V86.7744C309.562 87.2289 309.939 87.6051 310.393 87.6051H405.239C405.694 87.6051 406.054 87.2289 406.054 86.7744V86.2729C406.054 85.8341 405.694 85.458 405.239 85.458Z" fill="#638BE2"/>
<path d="M405.239 94.3599H310.393C309.939 94.3599 309.562 94.7361 309.562 95.1905V95.692C309.562 96.1465 309.939 96.5226 310.393 96.5226H405.239C405.694 96.5226 406.054 96.1465 406.054 95.692V95.1905C406.054 94.7204 405.694 94.3599 405.239 94.3599Z" fill="#638BE2"/>
<path d="M405.239 103.246H310.393C309.939 103.246 309.562 103.622 309.562 104.061V104.562C309.562 105.017 309.939 105.377 310.393 105.377H405.239C405.694 105.377 406.054 105.001 406.054 104.562V104.061C406.054 103.622 405.694 103.246 405.239 103.246Z" fill="#638BE2"/>
<path d="M416.257 200.913H246.06C243.333 200.913 241.124 198.703 241.124 195.977V139.495C241.124 136.768 243.333 134.558 246.06 134.558H416.257C418.984 134.558 421.194 136.768 421.194 139.495V195.992C421.194 198.703 418.984 200.913 416.257 200.913Z" fill="#FFFFF8"/>
<path d="M276.228 192.513C289.913 192.513 301.006 181.42 301.006 167.736C301.006 154.051 289.913 142.958 276.228 142.958C262.544 142.958 251.451 154.051 251.451 167.736C251.451 181.42 262.544 192.513 276.228 192.513Z" fill="#FFFFF8"/>
<path d="M362.455 160.793H312.054C310.691 160.793 309.578 159.681 309.578 158.333V152.613C309.578 151.249 310.691 150.152 312.054 150.152H362.455C363.818 150.152 364.931 151.265 364.931 152.613V158.333C364.915 159.696 363.818 160.793 362.455 160.793Z" fill="#3ED9C7"/>
<path d="M405.239 169.742H310.393C309.939 169.742 309.562 170.118 309.562 170.573V171.074C309.562 171.529 309.939 171.905 310.393 171.905H405.239C405.694 171.905 406.054 171.529 406.054 171.074V170.573C406.054 170.103 405.694 169.742 405.239 169.742Z" fill="#638BE2"/>
<path d="M405.239 178.628H310.393C309.939 178.628 309.562 179.004 309.562 179.459V179.96C309.562 180.415 309.939 180.791 310.393 180.791H405.239C405.694 180.791 406.054 180.415 406.054 179.96V179.459C406.054 179.004 405.694 178.628 405.239 178.628Z" fill="#638BE2"/>
<path d="M405.239 187.529H310.393C309.939 187.529 309.562 187.905 309.562 188.36V188.861C309.562 189.316 309.939 189.676 310.393 189.676H405.239C405.694 189.676 406.054 189.3 406.054 188.861V188.36C406.054 187.89 405.694 187.529 405.239 187.529Z" fill="#638BE2"/>
<path d="M416.257 285.197H246.06C243.333 285.197 241.124 282.987 241.124 280.26V223.763C241.124 221.036 243.333 218.826 246.06 218.826H416.257C418.984 218.826 421.194 221.036 421.194 223.763V280.26C421.194 282.987 418.984 285.197 416.257 285.197Z" fill="#FFFFF8"/>
<path d="M300.328 257.725C303.493 244.412 295.266 231.054 281.953 227.889C268.64 224.723 255.281 232.95 252.116 246.263C248.951 259.577 257.178 272.935 270.491 276.1C283.804 279.265 297.163 271.039 300.328 257.725Z" fill="#FFFFF8"/>
<path d="M362.455 245.077H312.054C310.691 245.077 309.578 243.964 309.578 242.617V236.896C309.578 235.533 310.691 234.42 312.054 234.42H362.455C363.818 234.42 364.931 235.533 364.931 236.896V242.617C364.915 243.964 363.818 245.077 362.455 245.077Z" fill="#3ED9C7"/>
<path d="M405.239 254.01H310.393C309.939 254.01 309.562 254.386 309.562 254.841V255.342C309.562 255.797 309.939 256.157 310.393 256.157H405.239C405.694 256.157 406.054 255.781 406.054 255.342V254.841C406.054 254.37 405.694 254.01 405.239 254.01Z" fill="#638BE2"/>
<path d="M405.239 262.896H310.393C309.939 262.896 309.562 263.272 309.562 263.726V264.228C309.562 264.682 309.939 265.043 310.393 265.043H405.239C405.694 265.043 406.054 264.667 406.054 264.228V263.726C406.054 263.272 405.694 262.896 405.239 262.896Z" fill="#638BE2"/>
<path d="M405.239 271.797H310.393C309.939 271.797 309.562 272.173 309.562 272.628V273.129C309.562 273.584 309.939 273.96 310.393 273.96H405.239C405.694 273.96 406.054 273.584 406.054 273.129V272.628C406.054 272.158 405.694 271.797 405.239 271.797Z" fill="#638BE2"/>
<path d="M300.327 257.726C303.492 244.412 295.266 231.054 281.953 227.889C268.64 224.724 255.282 232.951 252.117 246.264C248.952 259.577 257.178 272.935 270.491 276.1C283.804 279.265 297.162 271.039 300.327 257.726Z" fill="#E5F7FF"/>
<path d="M277.655 235.548C283.015 235.548 287.356 239.889 287.356 245.249V270.355H267.97V245.249C267.954 239.889 272.295 235.548 277.655 235.548Z" fill="#001C45"/>
<path d="M273.502 271.217H265.024V247.552C265.024 243.368 268.425 239.967 272.609 239.967H273.487V271.217H273.502Z" fill="#001C45"/>
<path d="M267.563 250.875C267.563 250.875 265.871 250.075 264.868 251.188C263.865 252.316 264.35 254.871 266.074 255.608C267.72 256.313 268.472 255.466 268.472 255.466L267.563 250.875Z" fill="#FF9A8D"/>
<path d="M265.792 251.642C266.231 251.517 266.873 251.564 267.202 251.877C267.328 251.987 267.093 252.206 266.967 252.144C266.262 251.83 265.369 251.752 264.961 252.567C264.946 252.614 264.914 252.567 264.914 252.536C265.055 252.081 265.337 251.783 265.792 251.642Z" fill="#BA5964"/>
<path d="M266.136 251.736C266.215 251.705 266.387 251.909 266.372 251.971C266.246 252.018 266.058 252.144 265.964 252.301C265.792 252.567 265.745 252.802 265.745 253.116C265.76 253.836 266.136 254.385 266.842 254.589C266.857 254.589 266.873 254.636 266.857 254.636C266.23 254.761 265.572 254.087 265.463 253.523C265.322 252.896 265.416 252.034 266.136 251.736Z" fill="#BA5964"/>
<path d="M284.865 250.796C284.865 250.796 286.558 250.06 287.561 251.188C288.564 252.316 288.078 254.871 286.354 255.608C284.708 256.313 283.956 255.466 283.956 255.466L284.865 250.796Z" fill="#FF9A8D"/>
<path d="M286.636 251.642C286.197 251.517 285.554 251.564 285.225 251.877C285.1 251.987 285.335 252.206 285.46 252.144C286.165 251.83 287.059 251.752 287.466 252.567C287.482 252.614 287.513 252.567 287.513 252.535C287.372 252.081 287.106 251.783 286.636 251.642Z" fill="#BA5964"/>
<path d="M286.307 251.736C286.229 251.705 286.056 251.909 286.072 251.971C286.198 252.018 286.386 252.144 286.48 252.301C286.652 252.567 286.699 252.802 286.699 253.115C286.683 253.836 286.307 254.385 285.602 254.589C285.586 254.589 285.571 254.636 285.586 254.636C286.213 254.761 286.871 254.087 286.981 253.523C287.106 252.896 287.028 252.034 286.307 251.736Z" fill="#BA5964"/>
<path d="M259.022 276.781C259.022 272.973 259.633 270.7 261.624 270.058C262.532 269.76 267.986 268.067 269.695 267.55C271.418 267.033 271.873 266.014 271.873 265.137C271.873 264.259 271.873 261.234 271.873 261.234H280.586C280.586 261.234 280.586 264.243 280.586 265.137C280.586 266.014 281.057 267.033 282.765 267.55C284.473 268.067 289.927 269.76 290.836 270.058C292.826 270.7 293.437 272.988 293.437 276.781H259.022Z" fill="#FF9A8D"/>
<path d="M271.873 262.363C271.873 262.379 272.735 264.87 276.23 264.87C279.725 264.87 280.587 262.379 280.587 262.363C280.587 261.72 280.587 261.234 280.587 261.234H271.873C271.873 261.234 271.873 261.72 271.873 262.363Z" fill="#BA5964"/>
<path d="M280.304 241.111C279.05 240.39 277.655 239.967 276.229 239.967C274.803 239.967 273.392 240.39 272.154 241.111C269.224 242.788 267.531 245.954 267.531 249.276C267.531 249.292 267.531 249.292 267.531 249.307C267.531 250.248 267.594 251.188 267.688 252.113L267.844 253.429C267.97 254.464 268.158 255.482 268.487 256.47C269.741 260.372 273.22 262.989 276.229 262.989C279.238 262.989 282.717 260.372 283.986 256.47C284.3 255.482 284.504 254.464 284.629 253.429L284.786 252.113C284.895 251.172 284.958 250.216 284.958 249.276V249.26C284.911 245.938 283.219 242.788 280.304 241.111Z" fill="#FF9A8D"/>
<path d="M279.222 251.266C279.222 250.765 279.629 250.357 280.131 250.357C280.632 250.357 281.04 250.765 281.04 251.266C281.04 251.768 280.632 252.175 280.131 252.175C279.629 252.175 279.222 251.784 279.222 251.266Z" fill="#001C45"/>
<path d="M278.345 248.931L282.576 250.013C282.576 250.013 282.404 248.602 280.947 248.242C279.176 247.803 278.345 248.931 278.345 248.931Z" fill="#001C45"/>
<path d="M272.311 252.175C272.813 252.175 273.22 251.768 273.22 251.266C273.22 250.764 272.813 250.357 272.311 250.357C271.809 250.357 271.402 250.764 271.402 251.266C271.402 251.768 271.809 252.175 272.311 252.175Z" fill="#001C45"/>
<path d="M274.113 248.931L269.882 250.013C269.882 250.013 270.054 248.602 271.512 248.242C273.283 247.803 274.113 248.931 274.113 248.931Z" fill="#001C45"/>
<path d="M276.215 240.767C276.215 240.767 278.017 246.879 284.929 248.289C284.929 248.289 285.54 244.324 282.578 241.911C279.616 239.497 276.215 239.654 276.215 239.654V240.767Z" fill="#001C45"/>
<path d="M276.214 240.813C276.214 240.813 274.412 246.925 267.501 248.336C267.501 248.336 266.89 244.371 269.852 241.957C272.814 239.544 276.214 239.701 276.214 239.701V240.813Z" fill="#001C45"/>
<path d="M290.836 270.057C289.927 269.759 284.473 268.066 282.765 267.549C282.31 267.408 281.95 267.251 281.668 267.048C281.715 267.236 281.746 267.439 281.746 267.643C281.746 269.179 279.27 270.417 276.229 270.417C273.173 270.417 270.713 269.179 270.713 267.643C270.713 267.439 270.729 267.251 270.776 267.063C270.494 267.251 270.133 267.408 269.71 267.534C267.986 268.051 262.548 269.743 261.639 270.041C259.649 270.684 259.037 272.972 259.037 276.764H293.468C293.437 272.972 292.842 270.699 290.836 270.057Z" fill="#FABA50"/>
<path d="M263.441 269.477C262.579 269.744 261.89 269.963 261.624 270.057C259.633 270.7 259.022 272.988 259.022 276.78H263.488V269.477H263.441Z" fill="#3ED9C7"/>
<path d="M289.018 269.477C289.88 269.744 290.57 269.963 290.836 270.057C292.827 270.7 293.438 272.988 293.438 276.78H288.971V269.477H289.018Z" fill="#3ED9C7"/>
<path d="M276.213 271.044C279.646 271.044 282.341 269.555 282.341 267.659C282.341 267.659 282.341 267.549 282.341 267.393C281.777 267.173 281.369 266.876 281.103 266.546C281.119 266.891 281.134 267.44 281.134 267.643C281.134 268.678 279.113 269.822 276.213 269.822C273.314 269.822 271.292 268.678 271.292 267.643C271.292 267.44 271.308 266.923 271.324 266.578C271.042 266.891 270.65 267.173 270.086 267.393C270.086 267.534 270.086 267.643 270.086 267.643C270.086 269.555 272.781 271.044 276.213 271.044Z" fill="#228C7E"/>
<path d="M276.229 250.671C275.868 250.703 274.959 254.809 275.335 255.498C275.492 255.78 275.947 256.078 276.229 256.047C276.511 256.078 276.965 255.796 277.122 255.498C277.498 254.793 276.589 250.687 276.229 250.671Z" fill="#BA5964"/>
<path d="M265.134 239.435C265.134 239.435 268.456 239.419 269.35 241.3" stroke="#001C45" stroke-width="0.5788" stroke-miterlimit="10" stroke-linecap="round"/>
<path d="M265.651 236.269C265.651 236.269 269.491 237.695 269.365 241.613" stroke="#001C45" stroke-width="0.5788" stroke-miterlimit="10" stroke-linecap="round"/>
<path d="M276.229 192.514C289.913 192.514 301.006 181.421 301.006 167.737C301.006 154.052 289.913 142.959 276.229 142.959C262.545 142.959 251.452 154.052 251.452 167.737C251.452 181.421 262.545 192.514 276.229 192.514Z" fill="#E5F7FF"/>
<path d="M267.579 166.404C267.579 166.404 265.902 165.809 264.899 166.921C263.896 168.05 264.382 170.604 266.106 171.341C267.751 172.046 268.504 171.2 268.504 171.2L267.579 166.404Z" fill="#FF9A8D"/>
<path d="M265.824 167.376C266.263 167.251 266.906 167.298 267.251 167.611C267.376 167.721 267.141 167.94 267.015 167.878C266.31 167.564 265.417 167.486 265.009 168.301C264.994 168.348 264.962 168.301 264.962 168.269C265.072 167.815 265.354 167.517 265.824 167.376Z" fill="#BA5964"/>
<path d="M266.153 167.47C266.231 167.438 266.403 167.642 266.388 167.705C266.262 167.752 266.074 167.877 265.98 168.034C265.808 168.3 265.761 168.535 265.761 168.849C265.776 169.57 266.153 170.118 266.858 170.322C266.873 170.322 266.889 170.369 266.873 170.369C266.247 170.494 265.588 169.82 265.479 169.256C265.338 168.614 265.432 167.752 266.153 167.47Z" fill="#BA5964"/>
<path d="M284.912 166.404C284.912 166.404 286.589 165.809 287.592 166.921C288.595 168.05 288.109 170.604 286.385 171.341C284.74 172.046 283.987 171.2 283.987 171.2L284.912 166.404Z" fill="#FF9A8D"/>
<path d="M286.667 167.376C286.228 167.251 285.586 167.298 285.256 167.611C285.131 167.721 285.366 167.94 285.492 167.878C286.197 167.564 287.09 167.486 287.498 168.301C287.513 168.348 287.545 168.301 287.545 168.269C287.403 167.815 287.121 167.517 286.667 167.376Z" fill="#BA5964"/>
<path d="M286.321 167.47C286.243 167.438 286.071 167.642 286.086 167.705C286.212 167.752 286.4 167.877 286.494 168.034C286.666 168.3 286.713 168.535 286.713 168.849C286.698 169.57 286.321 170.118 285.616 170.322C285.6 170.322 285.585 170.369 285.6 170.369C286.227 170.494 286.886 169.82 286.995 169.256C287.136 168.614 287.042 167.752 286.321 167.47Z" fill="#BA5964"/>
<path d="M255.808 192.513C255.808 188.705 257.611 186.433 259.601 185.79C260.51 185.492 267.155 183.8 268.879 183.283C270.603 182.765 271.057 181.747 271.057 180.869C271.057 179.992 271.057 176.168 271.057 176.168H281.369C281.369 176.168 281.369 179.976 281.369 180.869C281.369 181.747 281.839 182.765 283.548 183.283C285.271 183.8 291.916 185.492 292.825 185.79C294.816 186.433 296.618 188.721 296.618 192.513H255.808Z" fill="#FF9A8D"/>
<path d="M271.073 176.168C271.073 176.168 271.073 176.591 271.073 177.813C271.073 177.813 272.938 180.744 276.245 180.744C279.552 180.744 281.385 177.844 281.385 177.844C281.385 176.622 281.385 176.183 281.385 176.183H271.073V176.168Z" fill="#BA5964"/>
<path d="M292.842 185.774C291.933 185.476 285.288 183.784 283.564 183.267C283.36 183.204 283.172 183.141 283 183.063C283.172 183.47 283.251 183.894 283.251 184.332C283.251 186.809 280.1 188.815 276.229 188.815C272.343 188.815 269.208 186.809 269.208 184.332C269.208 183.894 269.303 183.47 269.459 183.063C269.287 183.141 269.099 183.204 268.895 183.267C267.171 183.784 260.526 185.476 259.617 185.774C257.627 186.417 255.825 188.705 255.825 192.497H296.65C296.634 188.705 294.832 186.432 292.842 185.774Z" fill="#3ED9C7"/>
<path d="M280.32 156.828C279.066 156.107 277.671 155.684 276.245 155.684C274.819 155.684 273.346 156.029 272.092 156.75C269.161 158.427 267.547 161.655 267.547 164.962V164.977C267.547 165.918 267.594 166.874 267.704 167.814L267.861 169.13C267.986 170.165 268.315 172.155 269.099 174.067C270.65 177.86 274.114 179.098 276.245 179.098C278.376 179.098 281.84 177.86 283.391 174.067C284.175 172.155 284.504 170.165 284.629 169.13L284.786 167.814C284.896 166.874 284.959 165.918 284.959 164.977V164.962C284.943 161.671 283.25 158.505 280.32 156.828Z" fill="#FF9A8D"/>
<path d="M279.254 167.015C279.254 166.514 279.661 166.106 280.163 166.106C280.664 166.106 281.072 166.514 281.072 167.015C281.072 167.517 280.664 167.924 280.163 167.924C279.661 167.924 279.254 167.517 279.254 167.015Z" fill="#001C45"/>
<path d="M278.768 164.273L282.999 165.354C282.999 165.354 282.764 164.163 281.291 163.442C280.648 163.129 279.896 163.113 279.426 163.332C278.736 163.662 278.768 164.273 278.768 164.273Z" fill="#001C45"/>
<path d="M273.706 164.273L269.474 165.354C269.474 165.354 269.709 164.163 271.182 163.442C271.825 163.129 272.577 163.113 273.047 163.332C273.737 163.662 273.706 164.273 273.706 164.273Z" fill="#001C45"/>
<path d="M273.251 167.015C273.251 166.514 272.844 166.106 272.342 166.106C271.841 166.106 271.433 166.514 271.433 167.015C271.433 167.517 271.841 167.924 272.342 167.924C272.844 167.924 273.251 167.517 273.251 167.015Z" fill="#001C45"/>
<path d="M267.532 166.592C267.532 166.592 267.782 166.514 268.033 166.294C268.237 166.106 268.707 165.621 268.707 163.85C268.707 162.079 269.177 158.866 270.854 157.753C270.854 157.753 270.932 156.907 270.509 156.719C269.929 156.484 268.456 156.797 267.437 157.769C265.243 159.853 266.137 166.263 266.137 166.263C266.482 166.232 267.155 166.326 267.532 166.592Z" fill="#001C45"/>
<path d="M285.225 166.513C285.225 166.513 284.802 166.466 284.567 166.294C284.332 166.106 283.783 165.636 283.783 163.865C283.783 162.094 283.313 158.881 281.636 157.769C281.636 157.769 282.999 156.405 284.943 157.769C286.902 159.148 286.369 166.278 286.369 166.278C285.961 166.247 285.57 166.341 285.225 166.513Z" fill="#001C45"/>
<path d="M285.225 161.436V166.514C285.57 166.341 285.946 166.263 286.354 166.279C287.513 153.772 281.621 151.108 275.352 152.237C270.729 153.067 270.149 157.346 270.149 157.346L270.838 157.769C271.653 157.769 272.061 158.302 272.688 158.787C273.33 159.289 273.989 159.759 274.709 160.151C275.9 160.809 277.233 161.279 278.58 161.264C278.925 161.264 279.301 161.201 279.521 160.95C279.803 160.621 279.724 160.135 279.583 159.728C279.395 159.211 279.145 158.725 278.815 158.302C279.677 159.007 280.524 159.712 282.185 159.884C283 159.963 283.517 159.477 283.219 158.615C283.204 158.552 285.225 160.386 285.225 161.436Z" fill="#001C45"/>
<path d="M276.23 166.451C275.807 166.482 274.71 170.588 275.164 171.278C275.352 171.56 275.901 171.857 276.23 171.826C276.559 171.857 277.123 171.575 277.296 171.278C277.75 170.588 276.653 166.482 276.23 166.451Z" fill="#BA5964"/>
<path d="M269.71 157.283C269.71 157.283 269.914 153.177 275.305 151.547C279.912 150.152 284.771 152.033 286.181 153.443C288.109 155.34 286.542 157.158 284.536 156.782C283.564 156.593 269.71 157.283 269.71 157.283Z" fill="#001C45"/>
<path d="M265.933 155.151C265.933 155.151 269.255 155.136 270.148 157.016" stroke="#001C45" stroke-width="0.5788" stroke-miterlimit="10" stroke-linecap="round"/>
<path d="M266.45 151.986C266.45 151.986 270.29 153.412 270.164 157.33" stroke="#001C45" stroke-width="0.5788" stroke-miterlimit="10" stroke-linecap="round"/>
<path d="M293.751 100.988C303.427 91.3119 303.427 75.6239 293.751 65.9477C284.075 56.2716 268.386 56.2716 258.71 65.9477C249.034 75.6239 249.034 91.3119 258.71 100.988C268.386 110.664 284.075 110.664 293.751 100.988Z" fill="#E5F7FF"/>
<path d="M286.008 82.0106C286.008 82.0106 288.861 68.4857 276.229 68.4857C263.597 68.4857 266.121 82.0106 266.121 82.0106H286.008Z" fill="#001C45"/>
<path d="M269.615 68.8462C269.349 66.4327 271.48 64.2229 274.395 63.9095C277.294 63.5961 279.864 65.2886 280.131 67.6864C280.397 70.0999 278.266 72.3096 275.351 72.6231C272.436 72.9522 269.866 71.2596 269.615 68.8462Z" fill="#001C45"/>
<path d="M267.532 81.8387C267.532 81.8387 265.871 81.1335 264.868 82.2618C263.865 83.3902 264.351 85.9447 266.075 86.6813C267.72 87.3865 268.472 86.5403 268.472 86.5403L267.532 81.8387Z" fill="#BA5964"/>
<path d="M265.792 82.701C266.231 82.5756 266.874 82.6226 267.203 82.936C267.328 83.0457 267.093 83.2652 266.968 83.2025C266.262 82.889 265.369 82.8107 264.962 83.6256C264.946 83.6726 264.915 83.6256 264.915 83.5943C265.056 83.1398 265.338 82.842 265.792 82.701Z" fill="#893A47"/>
<path d="M266.137 82.7943C266.215 82.763 266.387 82.9667 266.372 83.0294C266.246 83.0764 266.058 83.2018 265.964 83.3585C265.792 83.6249 265.745 83.86 265.745 84.1735C265.761 84.8944 266.137 85.4429 266.842 85.6466C266.858 85.6466 266.873 85.6936 266.858 85.6936C266.231 85.819 265.573 85.1451 265.463 84.5809C265.322 83.9384 265.416 83.0764 266.137 82.7943Z" fill="#893A47"/>
<path d="M284.896 81.8384C284.896 81.8384 286.558 81.1331 287.561 82.2458C288.564 83.3742 288.078 85.9287 286.354 86.6653C284.708 87.3705 283.956 86.5243 283.956 86.5243L284.896 81.8384Z" fill="#BA5964"/>
<path d="M286.636 82.7C286.197 82.5747 285.555 82.6217 285.21 82.9351C285.085 83.0448 285.32 83.2642 285.445 83.2015C286.15 82.8881 287.044 82.8098 287.451 83.6247C287.467 83.6717 287.498 83.6247 287.498 83.5933C287.373 83.1389 287.106 82.8411 286.636 82.7Z" fill="#893A47"/>
<path d="M286.307 82.7942C286.229 82.7629 286.056 82.9666 286.072 83.0293C286.198 83.0763 286.386 83.2017 286.48 83.3584C286.652 83.6248 286.699 83.8599 286.699 84.1733C286.683 84.8942 286.307 85.4428 285.602 85.6465C285.586 85.6465 285.571 85.6935 285.586 85.6935C286.213 85.8189 286.871 85.145 286.981 84.5808C287.106 83.9383 287.028 83.0763 286.307 82.7942Z" fill="#893A47"/>
<path d="M285.616 99.8767L281.275 96.3348H271.057L266.81 99.8767H285.616Z" fill="#3ED9C7"/>
<path d="M271.056 96.3348L270.759 98.5132H281.666L281.274 96.3348H271.056Z" fill="#228C7E"/>
<path d="M259.022 108.246C259.022 104.438 259.633 102.165 261.624 101.523C262.533 101.225 267.987 99.5323 269.695 99.0152C271.419 98.498 271.873 97.4793 271.873 96.6017C271.873 95.7241 271.873 92.6994 271.873 92.6994H280.587C280.587 92.6994 280.587 95.7084 280.587 96.6017C280.587 97.4793 281.057 98.498 282.765 99.0152C284.489 99.5323 289.927 101.225 290.836 101.523C292.826 102.165 293.438 104.453 293.438 108.246H259.022Z" fill="#BA5964"/>
<path d="M271.874 93.8278C271.874 93.8434 272.735 96.3353 276.23 96.3353C279.725 96.3353 280.587 93.8434 280.587 93.8278C280.587 93.1852 280.587 92.6994 280.587 92.6994H271.874C271.874 92.6994 271.874 93.1852 271.874 93.8278Z" fill="#893A47"/>
<path d="M272.062 103.794C272.062 103.794 273.66 104.782 276.23 104.782C278.801 104.782 280.384 103.794 280.384 103.794L279.208 108.245H273.237L272.062 103.794Z" fill="#FABA50"/>
<path d="M270.698 99.1085C270.698 98.9048 270.714 98.7167 270.761 98.5286C270.479 98.7167 270.118 98.8734 269.695 98.9988C267.971 99.516 262.533 101.209 261.624 101.506C259.634 102.149 259.022 104.437 259.022 108.23H273.237L271.419 101.177C270.275 100.676 270.698 99.9391 270.698 99.1085Z" fill="#228C7E"/>
<path d="M290.836 101.506C289.927 101.208 284.473 99.5159 282.765 98.9988C282.31 98.8577 281.95 98.701 281.668 98.4973C281.715 98.6853 281.746 98.8891 281.746 99.0928C281.746 99.9234 282.154 100.66 281.025 101.161L279.223 108.214H293.469C293.437 104.437 292.842 102.164 290.836 101.506Z" fill="#228C7E"/>
<path d="M281.668 98.5126L285.618 99.876L284.16 101.772L281.59 102.478L283.612 104.029L279.208 108.245L281.668 98.5126Z" fill="#3ED9C7"/>
<path d="M270.76 98.5126L266.811 99.876L268.284 101.772L270.839 102.478L268.817 103.7L273.221 108.245L270.76 98.5126Z" fill="#3ED9C7"/>
<path d="M280.304 72.5607C279.05 71.8398 277.655 71.4167 276.229 71.4167C274.803 71.4167 273.393 71.8398 272.154 72.5607C269.224 74.2376 267.531 77.4033 267.531 80.7258C267.531 80.7415 267.531 80.7415 267.531 80.7571C267.531 81.6974 267.594 82.6378 267.688 83.5624L267.845 84.8788C267.97 85.9132 268.158 86.9319 268.487 87.9192C269.741 91.8215 273.22 94.7521 276.229 94.7521C279.238 94.7521 282.717 91.8215 283.987 87.9192C284.3 86.9319 284.504 85.9132 284.629 84.8788L284.786 83.5624C284.896 82.6221 284.958 81.6661 284.958 80.7258V80.7101C284.911 77.3877 283.219 74.2376 280.304 72.5607Z" fill="#BA5964"/>
<path d="M279.222 82.9508C279.222 82.4493 279.63 82.0418 280.131 82.0418C280.633 82.0418 281.04 82.4493 281.04 82.9508C281.04 83.4523 280.633 83.8597 280.131 83.8597C279.63 83.8597 279.222 83.4523 279.222 82.9508Z" fill="#001C45"/>
<path d="M278.345 80.6158L282.577 81.6972C282.577 81.6972 282.404 80.2867 280.947 79.9263C279.176 79.4875 278.345 80.6158 278.345 80.6158Z" fill="#001C45"/>
<path d="M273.22 82.9508C273.22 82.4493 272.812 82.0418 272.311 82.0418C271.809 82.0418 271.402 82.4493 271.402 82.9508C271.402 83.4523 271.809 83.8597 272.311 83.8597C272.812 83.8597 273.22 83.4523 273.22 82.9508Z" fill="#001C45"/>
<path d="M274.114 80.6159L269.882 81.6973C269.882 81.6973 270.054 80.2868 271.512 79.9263C273.283 79.4875 274.114 80.6159 274.114 80.6159Z" fill="#001C45"/>
<path d="M267.422 78.5002H273.236C273.236 78.5002 273.424 75.8986 274.647 73.6732V78.5002H278.972V73.6732C278.972 73.6732 280.163 76.5098 280.163 78.5002H285.037C285.037 78.5002 284.567 70.5545 276.245 70.5545C267.877 70.5389 267.422 78.5002 267.422 78.5002Z" fill="#001C45"/>
<path d="M276.229 82.0421C275.868 82.0734 274.959 86.1794 275.336 86.869C275.492 87.1511 275.947 87.4489 276.229 87.4175C276.511 87.4489 276.965 87.1668 277.122 86.869C277.498 86.1794 276.589 82.0734 276.229 82.0421Z" fill="#893A47"/>
<path d="M280.352 64.5212C280.352 64.5212 281.543 67.6243 280.116 69.1288" stroke="#001C45" stroke-width="0.5788" stroke-miterlimit="10" stroke-linecap="round"/>
<path d="M283.502 64.5212C283.502 64.5212 283.534 68.6116 279.835 69.881" stroke="#001C45" stroke-width="0.5788" stroke-miterlimit="10" stroke-linecap="round"/>
<path d="M89.3577 174.601L101.08 171.295C101.08 171.295 101.237 167.173 102.804 164.493C104.559 161.5 104.936 159.118 105.813 160.136C106.706 161.171 106.612 162.017 105.939 163.929C105.265 165.841 106.064 167.847 106.064 167.847L112.286 160.559C112.286 160.559 111.486 164.916 109.919 169.21C108.728 172.47 107.443 174.319 103.384 176.733C98.5727 179.601 91.442 182.03 91.442 182.03L89.3577 174.601Z" fill="#BA5964"/>
<path d="M70.3166 145.201C73.545 147.928 73.2473 149.62 76.4443 159.932C79.1399 168.677 81.1616 176.45 81.1616 176.45L90.2042 173.896L91.3953 182.327C91.3953 182.327 78.0585 188.345 74.9398 187.499C71.0375 186.449 60.6 152.002 60.6 152.002C59.7694 145.922 66.0539 141.126 70.3166 145.201Z" fill="#228C7E"/>
<path d="M90.282 174.162C90.282 174.162 91.3947 177.359 91.3947 182.343" stroke="#AAEEED" stroke-width="1.05" stroke-miterlimit="10" stroke-linecap="round"/>
<path d="M89.7033 332.997C90.0951 333.749 89.7974 335.269 86.7884 336.523C83.7637 337.777 78.3099 337.244 76.1472 336.821C73.9844 336.397 72.6523 335.771 69.4553 336.429C66.2425 337.103 60.9768 336.805 59.3939 335.457C58.8454 334.815 59.2058 333.498 59.2058 333.498L89.7033 332.997Z" fill="#8FC9C6"/>
<path d="M60.914 323.61C60.4752 325.819 58.6729 330.991 59.1901 333.514C61.4468 335.426 66.2738 335.551 69.894 334.643C73.5142 333.734 76.0687 335.583 80.6135 335.849C85.08 336.116 88.7943 334.878 89.7032 332.997C90.6906 330.96 82.9016 329.377 77.6045 327.747C71.6649 325.929 68.5932 322.998 68.5932 322.998L60.914 323.61Z" fill="#228C7E"/>
<path d="M70.3955 327.872C70.3955 327.872 71.4612 324.879 72.8873 323.907" stroke="#8FC9C6" stroke-width="0.525" stroke-miterlimit="10" stroke-linecap="round"/>
<path d="M74.439 329.471C74.439 329.471 75.5046 326.478 76.9308 325.506" stroke="#8FC9C6" stroke-width="0.525" stroke-miterlimit="10" stroke-linecap="round"/>
<path d="M78.467 331.07C78.467 331.07 79.5327 328.076 80.9589 327.105" stroke="#8FC9C6" stroke-width="0.525" stroke-miterlimit="10" stroke-linecap="round"/>
<path d="M60.4915 315.444L60.9303 323.594C60.9303 323.594 61.9489 323.939 62.3721 324.424C62.7952 324.926 63.3751 326.587 64.096 326.603C66.9326 326.713 68.6095 322.983 68.6095 322.983V314.567L60.4915 315.444Z" fill="#FF9A8D"/>
<path d="M16.0304 334.941C15.5289 335.63 14.0244 336.006 11.5953 333.812C9.16615 331.618 7.31687 326.462 6.76835 324.331C6.21984 322.184 6.21983 320.726 4.24518 318.109C2.25485 315.492 0.280185 310.618 0.81303 308.596C1.15781 307.828 2.5056 307.593 2.5056 307.593L16.0304 334.941Z" fill="#AAEEED"/>
<path d="M12.1746 304.913C9.99622 305.462 4.5424 306.057 2.48938 307.609C1.73713 310.461 3.68045 314.881 6.06258 317.764C8.44471 320.648 7.84917 323.735 9.55741 327.967C11.2343 332.104 13.9455 334.941 16.0299 334.956C18.3023 334.972 16.3747 327.261 15.5754 321.776C14.6821 315.633 16.0142 311.605 16.0142 311.605L12.1746 304.913Z" fill="#03AA99"/>
<path d="M12.3787 315.288C12.3787 315.288 15.5444 314.975 17.0332 315.836" stroke="#AAEEED" stroke-width="0.525" stroke-miterlimit="10" stroke-linecap="round"/>
<path d="M12.6758 319.629C12.6758 319.629 15.8415 319.316 17.3303 320.178" stroke="#AAEEED" stroke-width="0.525" stroke-miterlimit="10" stroke-linecap="round"/>
<path d="M12.9587 323.97C12.9587 323.97 16.1245 323.657 17.6133 324.519" stroke="#AAEEED" stroke-width="0.525" stroke-miterlimit="10" stroke-linecap="round"/>
<path d="M17.0495 299.898L12.1756 304.897C12.1756 304.897 12.3009 305.963 12.0345 306.558C11.7681 307.154 10.5144 308.392 10.7964 309.05C11.9092 311.668 15.9995 311.573 15.9995 311.573L23.0362 306.057L17.0495 299.898Z" fill="#FF9A8D"/>
<path d="M77.3703 189.678C67.5284 189.678 59.1126 190.414 59.1126 190.414C55.9626 191.793 50.5714 198.94 48.9729 203.485C47.3744 208.029 48.0326 215.615 48.8632 219.517C53.4864 241.269 57.5297 254.449 59.332 263.069C60.429 268.35 55.0066 270.795 55.8372 280.402C56.8715 292.328 60.4761 315.444 60.4761 315.444C60.4761 315.444 64.2216 317.529 68.5784 315.539C68.5784 315.539 72.9979 272.848 73.5777 268.006C74.3457 261.486 75.286 257.27 75.9912 243.777C76.9472 225.676 77.3703 189.678 77.3703 189.678Z" fill="#1E4174"/>
<path d="M23.0347 306.057C23.0347 306.057 60.9607 278.255 63.2644 275.732C65.5525 273.193 66.8847 214.94 67.4802 211.195C67.4802 211.195 77.087 197.529 77.3691 189.662L57.2935 187.076C56.0084 191.903 49.2224 191.965 44.0664 203.484C39.5685 213.53 46.4642 241.301 48.7993 268.914C48.7993 268.914 44.8343 268.961 40.0544 272.378C35.6662 275.512 17.0637 299.882 17.0637 299.882C17.0637 299.882 18.4585 304.537 23.0347 306.057Z" fill="#85B8ED"/>
<path d="M57.2935 187.091C56.0084 191.918 49.2224 191.981 44.0664 203.5C39.5685 213.545 46.4642 241.316 48.7993 268.93C48.7993 268.93 44.8343 268.977 40.0544 272.393C35.6662 275.528 17.0637 299.897 17.0637 299.897C17.0637 299.897 17.4869 301.261 18.5996 302.765C22.4392 297.954 32.7199 286.357 38.7379 280.088C46.6993 271.798 51.8083 271.531 52.2001 269.776C52.5762 268.021 52.1844 241.974 50.8053 225.722C49.4262 209.471 50.8053 202.888 55.5539 196.98C58.845 192.89 60.5062 188.596 60.5062 188.596C68.0287 194.708 75.1594 193.156 76.9303 192.639C77.1811 191.589 77.3535 190.586 77.3848 189.661L57.2935 187.091Z" fill="#4E7EAC"/>
<path d="M68.3282 184.459C63.9244 192.796 57.4363 198.516 55.2892 204.064C53.1578 209.612 53.9571 220.864 54.3646 241.379C54.7564 261.533 55.2422 270.732 54.3646 272.112C53.5026 273.491 47.6256 274.823 38.4263 283.677C29.2269 292.532 17.7864 306.057 17.7864 306.057" stroke="#274D79" stroke-width="0.525" stroke-miterlimit="10"/>
<path d="M74.221 186.135C74.221 186.135 73.0143 200.726 59.176 197.654" stroke="#274D79" stroke-width="0.525" stroke-miterlimit="10"/>
<path d="M18.5073 295.635C19.1499 298.973 22.3626 303.408 27.1112 305.242" stroke="#274D79" stroke-width="0.525" stroke-miterlimit="10"/>
<path d="M59.8168 141.455C59.8168 141.455 56.6354 142.991 53.9869 146.125C51.7301 149.244 50.6958 158.522 52.0122 165.7C52.8115 170.072 58.469 183.095 56.1026 188.706C56.1026 188.706 69.4394 193.188 78.2156 189.678C78.7328 187.045 78.6231 182.249 78.9835 174.194C80.6918 172.344 82.3687 168.944 82.5254 166.75C83.0896 158.569 75.6924 155.262 69.6744 150.451C67.2453 148.507 65.4117 144.542 62.9825 142.678C61.3997 141.455 59.8168 141.455 59.8168 141.455Z" fill="#FFB852"/>
<path d="M65.2555 132.459L61.4943 135.813L59.8174 141.455C59.8174 141.455 62.1838 143.038 63.0928 144.417C64.2055 146.094 66.6817 150.106 69.675 150.451C69.675 150.451 69.3772 146.83 69.8317 144.871C70.2862 142.912 71.6497 139.041 71.6497 139.041L65.2555 132.459Z" fill="#FF9A8D"/>
<path d="M65.2552 132.459C65.2552 132.459 64.4403 135.609 64.5813 137.223C64.7224 138.822 66.1329 142.16 69.8314 144.871C70.2859 142.912 71.6494 139.041 71.6494 139.041L65.2552 132.459Z" fill="#BA5964"/>
<path d="M81.0997 125.36C81.805 127.899 84.7043 131.441 84.0774 132.083C83.5602 132.616 81.084 132.491 81.084 132.491C81.084 132.491 79.2661 130.736 79.8773 128.275C80.4885 125.83 81.0997 125.36 81.0997 125.36Z" fill="#BA5964"/>
<path d="M74.784 109.532C78.2945 109.845 81.805 114.703 81.7424 119.138C81.6797 123.558 80.661 125.971 80.9431 129.09C81.2252 132.209 81.2095 135.218 79.8931 138.493C79.0154 140.672 76.743 141.157 73.7184 140.437C70.9444 139.763 67.1518 137.098 66.2899 136.252C65.4122 135.406 65.2555 132.475 65.2555 132.475C65.2555 132.475 61.1182 131.864 59.2219 128.087C57.3256 124.279 57.6703 107.964 74.784 109.532Z" fill="#FF9A8D"/>
<path d="M65.2558 132.459C65.2558 132.459 61.4789 130.986 61.8237 126.786C62.1684 122.476 67.9671 122.32 67.732 126.112C67.732 126.112 71.1014 125.815 72.0731 124.326C73.0447 122.837 73.9851 115.502 73.9851 115.502C73.9851 115.502 75.1448 117.32 75.7403 119.906C76.3358 122.508 78.2792 122.821 81.6643 121.207C85.0494 119.593 87.4159 116.38 88.0741 113.261C88.0741 113.261 85.2845 113.183 83.6546 112.274C83.6546 112.274 87.4785 112.133 89.0771 109.704C89.0771 109.704 85.2688 111.365 82.777 110.064C80.3008 108.764 76.6649 105.504 72.0261 106.068C67.4029 106.632 64.8013 109.484 64.8013 109.484C64.8013 109.484 60.4759 107.682 57.2318 110.237C53.9877 112.791 51.7153 119.405 54.4892 126.238C57.2631 133.071 61.4946 135.798 61.4946 135.798L65.2558 132.459Z" fill="#001C45"/>
<path d="M56.3066 111.569C56.3066 111.569 52.467 106.821 47.0131 108.215C41.9825 109.501 38.8011 113.434 38.8951 120.957C38.9891 128.699 48.9564 139.779 40.4466 146.517C40.4466 146.517 53.1565 146.706 50.0378 131.269C47.6557 119.483 51.8087 114.798 55.3976 116.271L56.3066 111.569Z" fill="#001C45"/>
<path d="M78.0436 126.472C78.0122 125.908 77.5264 125.485 76.9779 125.516C76.4137 125.548 75.9906 126.033 76.0219 126.582C76.0532 127.146 76.5391 127.569 77.0876 127.538C77.6518 127.506 78.0749 127.021 78.0436 126.472Z" fill="#001C45"/>
<path d="M78.8899 123.808L74.251 125.281C74.251 125.281 74.345 123.699 75.9435 123.213C77.8869 122.617 78.8899 123.808 78.8899 123.808Z" fill="#001C45"/>
<path d="M64.2054 125.893C64.8323 125.673 65.7726 125.705 66.3054 126.128C66.5092 126.284 66.1644 126.614 65.9763 126.535C64.9106 126.143 63.5942 126.081 63.077 127.334C63.0457 127.397 62.9987 127.334 63.0143 127.287C63.1397 126.598 63.5315 126.128 64.2054 125.893Z" fill="#BA5964"/>
<path d="M64.6918 125.987C64.8171 125.924 65.0836 126.222 65.0522 126.316C64.8798 126.394 64.5977 126.598 64.4724 126.833C64.2529 127.241 64.1746 127.586 64.2216 128.04C64.3156 129.106 64.9112 129.874 65.9455 130.109C65.9612 130.109 65.9925 130.171 65.9612 130.171C65.0522 130.391 64.0335 129.466 63.8298 128.651C63.5947 127.758 63.6574 126.473 64.6918 125.987Z" fill="#BA5964"/>
<path d="M57.9219 141.752L60.1159 140.499C60.1159 140.499 68.9862 150.858 70.0362 158.803C70.7885 164.477 67.0115 185.712 67.0115 185.712C67.0115 185.712 56.6368 186.543 51.2613 182.703C51.2613 182.703 54.3957 177.625 52.6561 170.15C51.6844 165.981 50.8852 162.33 50.8068 157.268C50.6814 151.312 52.6718 146.14 57.9219 141.752Z" fill="#3ED9C7"/>
<path d="M68.3276 177.532L55.2886 164.18C55.3513 164.321 62.0432 180.619 64.1745 185.807C65.8671 185.822 66.9955 185.744 66.9955 185.744C66.9955 185.744 67.638 182.155 68.3276 177.532Z" fill="#03AA99"/>
<path d="M61.0713 145.922C56.5578 147.52 50.8845 154.353 53.8152 161.171C56.26 166.844 66.7602 186.042 68.5781 187.374C70.0356 188.455 84.6261 182.907 88.5127 181.967C88.5127 181.967 87.7291 177.845 86.4597 174.225L73.8909 176.811C73.8909 176.811 71.8692 172.501 69.7065 167.22C66.6975 159.932 63.0929 150.561 61.0713 145.922Z" fill="#3ED9C7"/>
<path d="M103.135 167.471C103.495 167.236 114.481 160.105 118.603 157.425C119.449 156.877 119.653 155.733 119.073 154.918C118.524 154.15 117.459 153.962 116.675 154.479L103.025 163.553C103.025 163.553 99.0756 167.471 103.135 167.471Z" fill="#001C45"/>
<path d="M86.4592 174.225L98.1818 170.918C98.1818 170.918 98.3385 166.797 99.9057 164.117C101.661 161.123 102.037 158.741 102.915 159.76C103.808 160.794 103.714 161.641 103.04 163.553C102.366 165.465 103.165 167.471 103.165 167.471L112.287 161.562C112.287 161.562 111.08 165.606 109.372 168.317C107.522 171.248 106.237 173.504 101.332 176.231C96.4265 178.958 88.5436 181.669 88.5436 181.669L86.4592 174.225Z" fill="#FF9A8D"/>
<path d="M69.6915 167.22C69.7385 166.844 69.7698 166.484 69.8012 166.123L65.5854 157.833L69.6915 167.22Z" fill="#03AA99"/>
<path d="M86.4592 173.708C86.4592 173.708 88.5122 176.028 88.7316 182.343" stroke="#AAEEED" stroke-width="1.05" stroke-miterlimit="10" stroke-linecap="round"/>
<path d="M140.716 94.9095H64.2526C59.316 94.9095 55.304 90.8975 55.304 85.9609C55.304 81.0242 59.316 77.0122 64.2526 77.0122H140.716C145.652 77.0122 149.664 81.0242 149.664 85.9609C149.664 90.9132 145.652 94.9095 140.716 94.9095Z" fill="white"/>
<path d="M72.2452 80.1466L73.9691 83.6414L77.8401 84.2056L75.0348 86.9325L75.693 90.7721L72.2452 88.9542L68.7974 90.7721L69.4556 86.9325L66.666 84.2056L70.5213 83.6414L72.2452 80.1466Z" fill="#FABA50"/>
<path d="M87.5406 80.1464L89.2802 83.6412L93.1355 84.2054L90.3459 86.9323L91.0041 90.7719L87.5406 88.954L84.0928 90.7719L84.751 86.9323L81.9614 84.2054L85.8167 83.6412L87.5406 80.1464Z" fill="#FABA50"/>
<path d="M102.852 80.1464L104.576 83.6412L108.431 84.2054L105.641 86.9323L106.3 90.7719L102.852 88.954L99.3882 90.7719L100.046 86.9323L97.2568 84.2054L101.128 83.6412L102.852 80.1464Z" fill="#FABA50"/>
<path d="M118.148 80.1464L119.872 83.6412L123.727 84.2054L120.938 86.9323L121.596 90.7719L118.148 88.954L114.7 90.7719L115.359 86.9323L112.569 84.2054L116.424 83.6412L118.148 80.1464Z" fill="#FABA50"/>
<path d="M133.444 80.1464L135.168 83.6412L139.039 84.2054L136.233 86.9323L136.907 90.7719L133.444 88.954L129.996 90.7719L130.654 86.9323L127.865 84.2054L131.72 83.6412L133.444 80.1464Z" fill="#FABA50"/>
<path d="M118.148 93.4363V106.021L126.031 93.4363H118.148Z" fill="white"/>
<path d="M498.206 162.737L488.395 158.913C488.395 158.913 488.239 155.575 486.781 153.381C484.524 149.98 483.741 146.36 482.785 147.284C481.813 148.24 482.064 149.964 482.565 151.923C483.067 153.882 482.095 155.81 482.095 155.81L473.538 149.102C473.538 149.102 473.241 153.945 474.714 156.782C476.297 159.869 478.256 162.157 482.894 165.307C487.533 168.457 495.103 172.689 495.103 172.689L498.206 162.737Z" fill="#BA5964"/>
<path d="M498.206 162.737L512.639 167.611V178.848L495.103 172.673L498.206 162.737Z" fill="#228C7E"/>
<path d="M498.332 162.126L495.198 172.375" stroke="#AAEEED" stroke-width="1.05" stroke-miterlimit="10" stroke-linecap="round"/>
<path d="M500.696 332.997C500.304 333.749 500.602 335.269 503.611 336.523C506.636 337.777 512.09 337.244 514.252 336.821C516.415 336.398 517.747 335.771 520.944 336.429C524.157 337.103 529.407 336.805 531.006 335.457C531.554 334.815 531.194 333.498 531.194 333.498L500.696 332.997Z" fill="#8FC9C6"/>
<path d="M529.486 323.609C529.925 325.819 531.727 330.991 531.21 333.514C528.953 335.426 524.126 335.551 520.506 334.642C516.886 333.733 514.331 335.583 509.786 335.849C505.32 336.116 501.605 334.878 500.697 332.997C499.709 330.96 507.498 329.377 512.795 327.747C518.735 325.929 521.807 322.998 521.807 322.998L529.486 323.609Z" fill="#228C7E"/>
<path d="M520.004 327.872C520.004 327.872 518.938 324.879 517.512 323.907" stroke="#8FC9C6" stroke-width="0.525" stroke-miterlimit="10" stroke-linecap="round"/>
<path d="M515.977 329.471C515.977 329.471 514.911 326.478 513.485 325.506" stroke="#8FC9C6" stroke-width="0.525" stroke-miterlimit="10" stroke-linecap="round"/>
<path d="M511.933 331.069C511.933 331.069 510.868 328.076 509.442 327.104" stroke="#8FC9C6" stroke-width="0.525" stroke-miterlimit="10" stroke-linecap="round"/>
<path d="M529.485 314.817V323.609C529.485 323.609 528.466 323.954 528.043 324.44C527.62 324.941 527.04 326.602 526.319 326.618C523.482 326.728 521.805 322.998 521.805 322.998L520.74 315.005L529.485 314.817Z" fill="#FF9A8D"/>
<path d="M572.771 334.94C573.273 335.629 574.777 336.006 577.206 333.812C579.636 331.617 581.485 326.461 582.033 324.33C582.582 322.183 582.582 320.725 584.556 318.108C586.547 315.491 588.537 310.617 587.989 308.595C587.644 307.828 586.296 307.592 586.296 307.592L572.771 334.94Z" fill="#AAEEED"/>
<path d="M576.626 304.913C578.804 305.461 584.258 306.057 586.311 307.608C587.064 310.461 585.12 314.88 582.738 317.764C580.356 320.647 580.951 323.735 579.243 327.966C577.566 332.103 574.855 334.94 572.771 334.956C570.498 334.971 572.426 327.261 573.225 321.776C574.119 315.632 572.786 311.605 572.786 311.605L576.626 304.913Z" fill="#03AA99"/>
<path d="M576.408 315.287C576.408 315.287 573.242 314.974 571.753 315.836" stroke="#AAEEED" stroke-width="0.525" stroke-miterlimit="10" stroke-linecap="round"/>
<path d="M576.125 319.628C576.125 319.628 572.959 319.315 571.47 320.177" stroke="#AAEEED" stroke-width="0.525" stroke-miterlimit="10" stroke-linecap="round"/>
<path d="M575.843 323.97C575.843 323.97 572.677 323.656 571.188 324.518" stroke="#AAEEED" stroke-width="0.525" stroke-miterlimit="10" stroke-linecap="round"/>
<path d="M571.753 299.897L576.627 304.897C576.627 304.897 576.501 305.962 576.768 306.558C577.034 307.154 578.288 308.392 578.006 309.05C576.893 311.667 572.803 311.573 572.803 311.573L565.766 306.057L571.753 299.897Z" fill="#FF9A8D"/>
<path d="M512.514 189.677C522.356 189.677 529.674 190.414 529.674 190.414C532.824 191.793 538.215 198.939 539.814 203.484C541.413 208.029 540.754 215.614 539.924 219.516C535.301 241.269 527.59 253.806 525.788 262.442C524.691 267.723 529.909 264.886 529.909 278.254C529.909 290.212 529.471 315.726 529.471 315.726C529.471 315.726 525.788 317.873 520.914 316.4C520.914 316.4 513.532 274.336 512.717 269.51C511.401 261.705 510.946 258.43 510.805 244.92C510.617 225.926 512.514 189.677 512.514 189.677Z" fill="#1E4174"/>
<path d="M565.75 306.056C565.75 306.056 527.824 278.254 525.52 275.731C523.232 273.192 522.229 221.021 521.618 217.275C521.618 217.275 512.325 207.809 512.042 199.958L542.211 184.85C543.496 189.677 542.697 192.529 545.847 204.769C549.357 218.435 542.305 241.331 539.985 268.945C539.985 268.945 543.95 268.992 548.73 272.409C553.119 275.543 571.721 299.913 571.721 299.913C571.721 299.913 570.342 304.536 565.75 306.056Z" fill="#85B8ED"/>
<path d="M571.753 299.897C571.753 299.897 571.33 301.261 570.217 302.765C566.377 297.938 556.081 286.357 550.079 280.088C542.117 271.797 536.993 271.531 536.616 269.776C536.24 268.021 536.648 241.99 538.011 225.722C539.39 209.47 538.011 202.888 533.263 196.996C531.601 194.927 530.348 192.796 529.533 191.213L542.243 184.85C543.528 189.692 542.728 192.529 545.878 204.784C549.405 218.466 542.337 241.347 540.017 268.945C540.017 268.945 540.581 268.961 541.522 269.149C542.164 269.274 542.964 269.494 543.904 269.823C544.828 270.168 545.878 270.638 547.007 271.28C547.587 271.609 548.167 271.986 548.746 272.409C549.718 273.098 551.348 274.791 553.323 277.032C557.006 281.201 561.832 287.219 565.625 292.046C566.205 292.782 566.753 293.487 567.286 294.161C569.919 297.531 571.753 299.897 571.753 299.897Z" fill="#4E7EAC"/>
<path d="M514.049 206.759C514.049 206.759 519.957 212.087 529.517 212.087C539.077 212.087 545.424 207.95 545.424 207.95L542.776 201.54L514.049 206.759Z" fill="#4E7EAC"/>
<path d="M520.458 184.458C524.862 192.796 531.35 198.516 533.498 204.064C535.629 209.611 534.83 220.864 534.422 241.378C534.03 261.532 533.545 270.732 534.422 272.111C535.284 273.49 541.161 274.822 550.36 283.677C559.56 292.531 571 306.056 571 306.056" stroke="#274D79" stroke-width="0.525" stroke-miterlimit="10"/>
<path d="M525.725 206.602C525.725 206.602 525.788 217.87 534.893 218.513" stroke="#274D79" stroke-width="0.525" stroke-miterlimit="10"/>
<path d="M570.295 295.634C569.652 298.972 566.439 303.408 561.691 305.241" stroke="#274D79" stroke-width="0.525" stroke-miterlimit="10"/>
<path d="M513.157 138.915C512.515 139.605 512.311 140.921 513.439 144.933L527.497 133.117L513.157 138.915Z" fill="#10A297"/>
<path d="M501.528 116.567C501.23 117.711 499.444 122.679 498.817 124.152C498.19 125.625 502.124 124.873 502.124 124.873L501.528 116.567Z" fill="#BA5964"/>
<path d="M524.737 133.117L514.504 142.379L510.821 132.756L520.819 122.178L524.737 133.117Z" fill="#FF9A8D"/>
<path d="M512.435 136.988C512.435 136.988 522.324 129.418 520.819 122.178L510.821 132.756L512.435 136.988Z" fill="#BA5964"/>
<path d="M520.788 122.178C520.788 122.178 520.569 123.776 520.224 125.03C519.879 126.284 511.902 132.459 509.614 133.414C507.326 134.37 504.035 134.778 502.437 126.676C500.838 118.573 500.916 111.145 505.211 106.067C509.505 100.989 518.014 102.823 522.653 107.007C527.292 111.176 526.681 122.099 520.788 122.178Z" fill="#FF9A8D"/>
<path d="M520.789 122.177L522.309 126.362C522.309 126.362 524.017 125.672 525.506 122.177C527.136 118.353 530.223 111.74 528.828 108.48C526.995 104.202 521.462 104.029 521.462 104.029C521.462 104.029 516.557 96.5539 505.195 95.0494C493.833 93.5449 491.404 102.133 500.728 105.361C500.728 105.361 496.074 109.593 500.07 110.69C504.067 111.787 513.783 108.778 513.783 108.778C513.783 108.778 509.489 111.959 511.307 112.915C513.125 113.871 519.159 111.568 519.159 111.568L519.253 114.906C519.253 114.906 521.572 113.417 523.39 114.671C525.584 116.191 524.565 122.224 520.789 122.177Z" fill="#001C45"/>
<path d="M519.785 94.2191C519.785 94.2191 524.643 99.908 520.208 105.91C520.208 105.91 525.819 104.139 525.521 98.4349" stroke="#001C45" stroke-width="0.7875" stroke-miterlimit="10" stroke-linecap="round"/>
<path d="M484.399 158.019C484.054 157.753 473.757 149.682 469.886 146.642C469.103 146.015 468.993 144.871 469.636 144.103C470.247 143.382 471.328 143.288 472.065 143.883L484.853 154.133C484.869 154.148 488.442 158.395 484.399 158.019Z" fill="#001C45"/>
<path d="M514.583 143.962C514.583 143.962 513.141 140.483 513.768 139.558C515.868 136.502 522.701 127.506 523.657 128.368C524.613 129.23 527.497 133.101 527.497 133.101L514.583 143.962Z" fill="#3ED9C7"/>
<path d="M513.439 144.933C512.561 148.977 512.64 155.637 512.091 169.758C511.731 178.847 510.822 205.207 510.822 205.207C510.822 205.207 517.78 209.768 529.456 208.828C540.614 207.934 545.441 202.449 545.441 202.449C545.441 202.449 544.281 165.369 540.614 150.779C535.192 135.734 527.497 133.117 527.497 133.117L513.439 144.933Z" fill="#3ED9C7"/>
<path d="M531.336 150.152L520.992 176.857L511.918 174.412C511.762 178.487 511.668 182.154 511.495 187.091C513.642 188.015 516.244 188.924 519.488 189.833C522.324 190.633 523.108 190.1 524.236 188.172C527.12 183.298 536.288 159.916 536.288 159.916L531.336 150.152Z" fill="#03AA99"/>
<path d="M524.754 142.379C522.905 143.962 522.043 145.498 520.303 150.513C518.36 156.108 514.207 170.573 514.207 170.573L514.881 170.839L524.754 142.379Z" fill="#03AA99"/>
<path d="M534.329 138.994C529.063 136.314 524.518 139.872 521.227 150.278C518.093 160.167 514.88 170.839 514.88 170.839L500.509 165.26L497.406 174.914C497.406 174.914 510.805 183.283 516.761 185.414C522.622 187.499 523.75 186.041 532.683 167.846C539.328 154.274 542.933 143.367 534.329 138.994Z" fill="#3ED9C7"/>
<path d="M500.509 165.26L490.699 161.138C490.699 161.138 490.542 157.8 489.085 155.606C486.828 152.205 486.044 148.585 485.088 149.51C484.117 150.466 484.367 152.19 484.869 154.149C485.37 156.108 484.399 158.035 484.399 158.035L475.842 151.328C475.842 151.328 475.544 156.17 477.017 159.007C478.6 162.094 480.559 164.382 485.198 167.532C489.837 170.682 497.406 174.914 497.406 174.914L500.509 165.26Z" fill="#FF9A8D"/>
<path d="M527.496 133.117L514.598 143.962L513.453 144.933C513.077 145.654 512.999 146.312 513.14 146.892L527.496 133.117Z" fill="#03AA99"/>
<path d="M500.556 164.633L497.343 175.588" stroke="#AAEEED" stroke-width="1.05" stroke-miterlimit="10" stroke-linecap="round"/>
<path d="M505.947 117.022C505.979 116.458 506.465 116.035 507.013 116.066C507.577 116.097 508 116.583 507.969 117.132C507.938 117.696 507.452 118.119 506.903 118.088C506.355 118.056 505.916 117.586 505.947 117.022Z" fill="#001C45"/>
<path d="M505.116 114.358L509.755 115.831C509.755 115.831 509.661 114.248 508.062 113.762C506.103 113.167 505.116 114.358 505.116 114.358Z" fill="#001C45"/>
<path d="M522.433 116.004C521.807 115.785 520.866 115.816 520.333 116.239C520.13 116.396 520.474 116.725 520.662 116.647C521.728 116.255 523.045 116.192 523.562 117.446C523.593 117.509 523.64 117.446 523.624 117.399C523.499 116.725 523.107 116.255 522.433 116.004Z" fill="#BA5964"/>
<path d="M521.932 116.114C521.806 116.051 521.54 116.349 521.571 116.443C521.744 116.521 522.026 116.725 522.151 116.96C522.371 117.367 522.449 117.712 522.402 118.167C522.308 119.232 521.712 120 520.678 120.235C520.662 120.235 520.631 120.298 520.662 120.298C521.571 120.517 522.59 119.593 522.794 118.778C523.029 117.869 522.982 116.599 521.932 116.114Z" fill="#BA5964"/>
<path d="M460.719 85.929H537.182C542.119 85.929 546.131 81.917 546.131 76.9804C546.131 72.0437 542.119 68.0317 537.182 68.0317H460.719C455.782 68.0317 451.771 72.0437 451.771 76.9804C451.771 81.9327 455.782 85.929 460.719 85.929Z" fill="white"/>
<path d="M529.19 73.0308L530.178 75.0368L530.366 75.4286L530.789 75.4913L532.999 75.8047L531.4 77.3562L531.087 77.654L531.165 78.0771L531.541 80.2712L529.566 79.2369L529.19 79.0331L528.814 79.2369L526.84 80.2712L527.216 78.0771L527.294 77.654L526.981 77.3562L525.382 75.8047L527.592 75.4913L528.015 75.4286L528.203 75.0368L529.19 73.0308ZM529.19 71.1658L527.466 74.6607L523.595 75.2249L526.385 77.9518L525.727 81.7914L529.175 79.9734L532.622 81.7914L531.964 77.9518L534.754 75.2249L530.899 74.6607L529.19 71.1658Z" fill="#FABA50"/>
<path d="M513.879 71.1661L512.155 74.6609L508.3 75.2251L511.089 77.952L510.431 81.7916L513.879 79.9737L517.342 81.7916L516.684 77.952L519.474 75.2251L515.603 74.6609L513.879 71.1661Z" fill="#FABA50"/>
<path d="M498.584 71.1661L496.86 74.6609L493.004 75.2251L495.794 77.952L495.136 81.7916L498.584 79.9737L502.031 81.7916L501.373 77.952L504.163 75.2251L500.308 74.6609L498.584 71.1661Z" fill="#FABA50"/>
<path d="M483.287 71.1661L481.563 74.6609L477.692 75.2251L480.497 77.952L479.823 81.7916L483.287 79.9737L486.735 81.7916L486.077 77.952L488.866 75.2251L485.011 74.6609L483.287 71.1661Z" fill="#FABA50"/>
<path d="M467.976 71.1661L466.252 74.6609L462.397 75.2251L465.186 77.952L464.528 81.7916L467.976 79.9737L471.439 81.7916L470.781 77.952L473.571 75.2251L469.715 74.6609L467.976 71.1661Z" fill="#FABA50"/>
<path d="M483.287 84.456V97.0405L475.404 84.456H483.287Z" fill="white"/>
</svg>
